<svg height='100px' width='100px'  fill="#000000" xmlns="http://www.w3.org/2000/svg" viewBox="0 0 64 64" x="0px" y="0px"><g><path d="M54.621,45.019C49.178,53.632,41.566,58,32,58S14.822,53.632,9.379,45.019a41.46,41.46,0,0,1-3.714-7.557,50.5,50.5,0,0,0,4.4,4.763C16.793,48.62,24.379,52,32,52c12.52,0,21.631-8.689,26.311-14.474A41.4,41.4,0,0,1,54.621,45.019ZM33,46V36.593c9.054-4.932,19.212-1.212,22.992.523C51.334,42.56,42.964,50,32,50c-8.968,0-16.132-5.017-20.562-9.225a47.463,47.463,0,0,1-3.472-3.686C11.544,35.358,21.24,31.671,31,36.614V46ZM22.2,5.98c2.343-.469,3.636.6,5.134,1.835C28.572,8.839,29.979,10,32,10c1.871,0,3.262-1.2,4.488-2.254,1.372-1.183,2.553-2.2,4.27-1.776,6.613,1.654,11.857,6.524,15.585,14.475a46.686,46.686,0,0,1,2.523,6.762c-.7-.885-1.506-1.858-2.433-2.877-.814-.9-1.654-1.762-2.495-2.556a42.577,42.577,0,0,0-5.376-4.351,32.45,32.45,0,0,0-8.255-4.095,26.759,26.759,0,0,0-16.615,0,32.474,32.474,0,0,0-8.252,4.093,44.176,44.176,0,0,0-7.87,6.906c-1.039,1.142-1.932,2.227-2.68,3.194C6.587,20.631,11.143,8.191,22.2,5.98ZM53.349,24H51a2,2,0,0,1-2-2V20.2a42.282,42.282,0,0,1,3.563,3.024C52.826,23.475,53.087,23.739,53.349,24ZM47,18.8V22a2,2,0,0,1-2,2H43a2,2,0,0,1-2-2V15.71A30.774,30.774,0,0,1,47,18.8Zm-8-3.763V22a2,2,0,0,1-2,2H35a2,2,0,0,1-2-2V14.046A24.983,24.983,0,0,1,39,15.037Zm-8-.991V22a2,2,0,0,1-2,2H27a2,2,0,0,1-2-2V15.037A24.95,24.95,0,0,1,31,14.046ZM23,15.71V22a2,2,0,0,1-2,2H19a2,2,0,0,1-2-2V18.8A30.8,30.8,0,0,1,23,15.71Zm-8,4.5V22a2,2,0,0,1-2,2H10.656A42.045,42.045,0,0,1,15,20.209ZM8.76,26H13a3.974,3.974,0,0,0,3-1.382A3.974,3.974,0,0,0,19,26h2a3.974,3.974,0,0,0,3-1.382A3.974,3.974,0,0,0,27,26h2a3.974,3.974,0,0,0,3-1.382A3.974,3.974,0,0,0,35,26h2a3.974,3.974,0,0,0,3-1.382A3.974,3.974,0,0,0,43,26h2a3.974,3.974,0,0,0,3-1.382A3.974,3.974,0,0,0,51,26h4.241a47.769,47.769,0,0,1,4.584,6c-.423.665-1.279,1.944-2.522,3.522-3.617-1.729-15.054-6.3-25.321-.66-10.988-5.613-21.856-1.106-25.318.641-1.226-1.568-2.07-2.839-2.49-3.5A47.679,47.679,0,0,1,8.76,26Z"></path></g></svg>