<svg height='100px' width='100px'  fill="#000000" xmlns="http://www.w3.org/2000/svg" xmlns:xlink="http://www.w3.org/1999/xlink" xml:space="preserve" version="1.1" style="shape-rendering:geometricPrecision;text-rendering:geometricPrecision;image-rendering:optimizeQuality;" viewBox="0 0 333.33 333.33" x="0px" y="0px" fill-rule="evenodd" clip-rule="evenodd"><defs><style type="text/css">
   
    .fil0 {fill:#000000}
   
  </style></defs><g><path class="fil0" d="M255.41 298.5c17.27,0 23.31,-3.57 24.65,-18.33 1.33,-14.76 9.83,-80.96 9.83,-80.96 0,0 -60.65,-35.93 -60.92,-105.37l-21.88 0 0 21.43 -80.85 0 0 -21.43 -21.88 0c-0.27,69.43 -60.92,105.37 -60.92,105.37 0,0 8.5,66.2 9.83,80.96 1.33,14.76 7.38,18.33 24.65,18.33 59.17,0 118.33,0 177.5,0zm-178.26 -216.3c0,0 12.97,25.93 4.68,39.62 -8.29,13.69 -51.33,27.2 -57.09,16.75 -5.76,-10.45 -20.17,-41.25 -20.17,-41.25 47.61,-83.32 276.59,-83.32 324.2,0 0,0 -14.41,30.8 -20.17,41.25 -5.76,10.44 -48.81,-3.06 -57.09,-16.75 -8.29,-13.69 4.68,-39.62 4.68,-39.62l-179.03 0zm89.52 88.59c14.02,0 25.38,11.36 25.38,25.38 0,14.02 -11.36,25.39 -25.38,25.39 -14.02,0 -25.38,-11.37 -25.38,-25.39 0,-14.02 11.36,-25.38 25.38,-25.38zm11.59 -28.59c5.03,0 9.11,4.08 9.11,9.11 0,5.03 -4.07,9.1 -9.11,9.1 -5.03,0 -9.1,-4.07 -9.1,-9.1 0,-5.03 4.07,-9.11 9.1,-9.11zm-28.54 1.44c4.35,-2.52 9.93,-1.02 12.44,3.33 2.52,4.35 1.02,9.93 -3.33,12.44 -4.35,2.52 -9.92,1.02 -12.44,-3.33 -2.52,-4.35 -1.02,-9.93 3.33,-12.44zm-24 15.51c2.52,-4.35 8.08,-5.85 12.44,-3.33 4.35,2.52 5.85,8.08 3.33,12.44 -2.51,4.35 -8.08,5.85 -12.44,3.33 -4.35,-2.52 -5.85,-8.08 -3.33,-12.44zm-13.03 25.43c0,-5.03 4.07,-9.11 9.11,-9.11 5.03,0 9.1,4.08 9.1,9.11 0,5.03 -4.07,9.1 -9.1,9.1 -5.03,0 -9.11,-4.07 -9.11,-9.1zm1.43 28.54c-2.51,-4.35 -1.02,-9.93 3.33,-12.44 4.35,-2.52 9.93,-1.02 12.44,3.33 2.52,4.35 1.02,9.93 -3.33,12.44 -4.35,2.52 -9.93,1.02 -12.44,-3.33zm15.52 24c-4.35,-2.51 -5.85,-8.08 -3.33,-12.44 2.52,-4.35 8.08,-5.85 12.44,-3.33 4.36,2.51 5.85,8.08 3.33,12.44 -2.52,4.35 -8.08,5.85 -12.44,3.33zm25.43 13.03c-5.03,0 -9.11,-4.07 -9.11,-9.11 0,-5.03 4.07,-9.1 9.11,-9.1 5.03,0 9.1,4.07 9.1,9.1 0,5.03 -4.07,9.11 -9.1,9.11zm28.54 -1.43c-4.35,2.51 -9.93,1.02 -12.44,-3.33 -2.52,-4.35 -1.02,-9.92 3.33,-12.44 4.35,-2.52 9.92,-1.02 12.44,3.33 2.52,4.36 1.02,9.93 -3.33,12.44zm24 -15.52c-2.52,4.35 -8.08,5.85 -12.44,3.33 -4.35,-2.52 -5.85,-8.08 -3.33,-12.44 2.51,-4.36 8.08,-5.85 12.44,-3.33 4.35,2.52 5.85,8.08 3.33,12.44zm13.03 -25.43c0,5.03 -4.07,9.11 -9.11,9.11 -5.03,0 -9.1,-4.07 -9.1,-9.11 0,-5.03 4.07,-9.1 9.1,-9.1 5.03,0 9.11,4.07 9.11,9.1zm-1.43 -28.54c2.51,4.35 1.02,9.93 -3.33,12.44 -4.35,2.51 -9.93,1.02 -12.44,-3.33 -2.52,-4.35 -1.02,-9.92 3.33,-12.44 4.35,-2.52 9.93,-1.02 12.44,3.33zm-15.52 -24c4.35,2.52 5.85,8.08 3.33,12.44 -2.52,4.35 -8.08,5.85 -12.44,3.33 -4.36,-2.52 -5.85,-8.08 -3.33,-12.44 2.52,-4.35 8.08,-5.85 12.44,-3.33z"></path></g></svg>